<svg xmlns="http://www.w3.org/2000/svg" viewBox="0 0 297.75 387.75"><defs><style>.cls-1{fill:#fff;}</style></defs><title>Asset 3</title><g id="Layer_2" data-name="Layer 2"><g id="Layer_1-2" data-name="Layer 1"><path class="cls-1" d="M34.21,231.14c0-21.06,0-23.76-14.58-33.48l-4.86-3.24c-2.16-2.16-2.16-8.1.54-9.72,12.42-4.32,43.2-18.36,55.62-26.46,2.7,0,4.86,1.08,5.4,3.24-1.08,18.9-2.16,44.82-2.16,67v97.21c0,38.88,1.08,44.28,20.52,47L106,374.25c3.78,2.7,2.7,11.88-1.08,13.5-16.2-1.08-31.86-1.62-50.76-1.62-19.44,0-35.64.54-50.76,1.62-3.78-1.62-4.86-10.8-1.08-13.5l11.34-1.62c20-2.7,20.52-8.1,20.52-47ZM79,77.23c0,19.44-13.5,28.08-28.62,28.08-16.74,0-27.54-12.42-27.54-27,0-17.82,13-29.16,29.16-29.16S79,62.1,79,77.23Z"/><path class="cls-1" d="M180,196c-9.18,0-9.18,1.08-9.18,15.66V325.64c0,38.88,1.08,45.36,20.52,47l19.44,1.62c3.78,2.7,2.7,11.88-1.08,13.5-24.3-1.08-40-1.62-58.86-1.62-19.44,0-35.64.54-51.84,1.62-3.78-1.62-4.86-10.8-1.08-13.5l12.42-1.62c20-2.7,20.52-8.1,20.52-47V211.7c0-14.58,0-15.66-10.8-15.66h-18.9c-3.24-2.16-3.78-7-1.62-10.26l23.22-11.34c4.32-2.16,8.1-5.4,8.1-10.8,0-31.32,3.78-64.8,16.74-95C161.12,37.8,191.36,0,244.82,0c28.62,0,52.92,13,52.92,32.4,0,10.8-10.26,19.44-20.52,19.44-5.94,0-9.18-2.16-13-6.48C254,33.48,238.88,21.6,221.06,21.6c-16.74,0-30.24,10.26-38.34,29.7-9.72,24.84-11.88,64.26-11.88,91.27v15.66c0,14.58,0,15.12,9.18,15.12h61.56c5.94,5.4,2.16,20.52-3.78,22.68Z"/></g></g></svg>